<svg xmlns="http://www.w3.org/2000/svg" viewBox="0 0 64 64" role="img" aria-label="Doker">
  <title>Doker</title>
  <defs>
    <linearGradient id="g_doker_formwork" x1="0" y1="0" x2="1" y2="1">
      <stop offset="0" stop-color="#003d7a"/>
      <stop offset="1" stop-color="#f58220"/>
    </linearGradient>
    <linearGradient id="s_doker_formwork" x1="0" y1="0" x2="0" y2="1">
      <stop offset="0" stop-color="#ffffff" stop-opacity=".18"/>
      <stop offset="1" stop-color="#ffffff" stop-opacity="0"/>
    </linearGradient>
  </defs>
  <rect x="2" y="2" width="60" height="60" rx="15" fill="url(#g_doker_formwork)"/>
  <rect x="2" y="2" width="60" height="30" rx="15" fill="url(#s_doker_formwork)"/>
  <!-- skyline bars -->
  <rect x="12" y="38" width="6" height="14" rx="1.6" fill="#fff" opacity=".80"/>
  <rect x="21" y="30" width="6" height="22" rx="1.6" fill="#fff" opacity=".92"/>
  <rect x="30" y="23" width="6" height="29" rx="1.6" fill="#fff" opacity=".80"/>
  <!-- building block + windows -->
  <rect x="39" y="20" width="17" height="32" rx="2.4" fill="#fff" opacity=".92"/>
  <rect x="42.5" y="24.5" width="3.6" height="4" rx="1" fill="url(#g_doker_formwork)" opacity=".55"/>
  <rect x="48.2" y="24.5" width="3.6" height="4" rx="1" fill="url(#g_doker_formwork)" opacity=".55"/>
  <rect x="42.5" y="31.5" width="3.6" height="4" rx="1" fill="url(#g_doker_formwork)" opacity=".55"/>
  <rect x="48.2" y="31.5" width="3.6" height="4" rx="1" fill="url(#g_doker_formwork)" opacity=".55"/>
  <!-- door -->
  <rect x="44.8" y="44" width="5.4" height="8" rx="1.2" fill="url(#g_doker_formwork)" opacity=".60"/>
  <!-- ground line -->
  <rect x="10" y="52" width="44" height="2.4" rx="1.2" fill="#fff" opacity=".55"/>
</svg>
